# xmcd CD database file generated by OrangeCD 5.2
#
# Track frame offsets:
#	150
#	16594
#	36332
#	50069
#	65199
#	86822
#	96386
#	106415
#	116000
#	131811
#	142039
#	156998
#	171538
#	186711
#	198766
#
# Disc length: 2837 seconds
#
# Revision: 0
# Processed by: cddbd v1.5.1PL2 Copyright (c) Steve Scherf et al.
# Submitted via: OrangeCD 5.2
#
DISCID=eb0b130f
DTITLE=Bar D Wranglers - Colorado
DYEAR=1900
DGENRE=Country
TTITLE0=Colorado
TTITLE1=El Paso
TTITLE2=Ghostriders In The SKy
TTITLE3=Ponies
TTITLE4=Born To Be A Cowboy
TTITLE5=The Possum Song
TTITLE6=Ride Cowboy Ride
TTITLE7=Clarinet Polka
TTITLE8=Cool Water/Tumbling Tumbleweeds Medley
TTITLE9=The Motorhome Song
TTITLE10=Dig Another Well
TTITLE11=The Masters Call
TTITLE12=In The Garden
TTITLE13=Unclouded Day
TTITLE14=God Bless The U.S.A.
EXTD=
EXTT0=
EXTT1=
EXTT2=
EXTT3=
EXTT4=
EXTT5=
EXTT6=
EXTT7=
EXTT8=
EXTT9=
EXTT10=
EXTT11=
EXTT12=
EXTT13=
EXTT14=
PLAYORDER=
